<mxfile host="app.diagrams.net" agent="Mozilla/5.0 (Windows NT 10.0; Win64; x64) AppleWebKit/537.36 (KHTML, like Gecko) Chrome/141.0.0.0 Safari/537.36" version="28.2.5">
  <diagram id="architect" name="Architecture">
    <mxGraphModel dx="1810" dy="2026" grid="1" gridSize="10" guides="1" tooltips="1" connect="1" arrows="1" fold="1" page="1" pageScale="1" pageWidth="850" pageHeight="1100" math="0" shadow="0">
      <root>
        <mxCell id="0" />
        <mxCell id="1" parent="0" />
        <mxCell id="frontend" value="Веб-приложение / Панель администратора&lt;div&gt;&lt;br&gt;&lt;/div&gt;&lt;div&gt;&lt;span style=&quot;font-size: 20px;&quot;&gt;&lt;font style=&quot;color: rgb(0, 0, 0);&quot;&gt;Frontend&lt;/font&gt;&lt;/span&gt;&lt;/div&gt;" style="rounded=1;whiteSpace=wrap;html=1;fillColor=#dbeafe;strokeColor=#2563eb;fontSize=15;fontColor=#0f172a;fontFamily=Exo 2;fontSource=https%3A%2F%2Ffonts.googleapis.com%2Fcss%3Ffamily%3DExo%2B2;fontStyle=1" parent="1" vertex="1">
          <mxGeometry x="690" y="-60" width="230" height="110" as="geometry" />
        </mxCell>
        <mxCell id="gateway" value="&lt;div&gt;&lt;span style=&quot;color: rgb(17, 24, 39); font-size: 20px;&quot;&gt;🔒&lt;/span&gt;&lt;/div&gt;API Gateway&lt;div&gt;(JWT, RBAC, Rate Limiting, Validation)&lt;/div&gt;" style="rounded=1;whiteSpace=wrap;html=1;fillColor=#fef3c7;strokeColor=#f59e0b;fontSize=15;fontColor=#92400e;fontFamily=Exo 2;fontSource=https%3A%2F%2Ffonts.googleapis.com%2Fcss%3Ffamily%3DExo%2B2;fontStyle=1" parent="1" vertex="1">
          <mxGeometry x="410" y="60" width="240" height="100" as="geometry" />
        </mxCell>
        <mxCell id="backendGroup" value="&lt;font style=&quot;font-size: 20px;&quot;&gt;Backend (микросервисы)&lt;/font&gt;" style="rounded=1;whiteSpace=wrap;html=1;fillColor=#ecfccb;strokeColor=#16a34a;fontSize=15;fontColor=#064e3b;fontFamily=Exo 2;fontSource=https%3A%2F%2Ffonts.googleapis.com%2Fcss%3Ffamily%3DExo%2B2;fontStyle=1" parent="1" vertex="1">
          <mxGeometry x="360" y="180" width="860" height="320" as="geometry" />
        </mxCell>
        <mxCell id="auth" value="&lt;div style=&quot;&quot;&gt;&lt;span style=&quot;color: rgb(17, 24, 39); font-size: 20px;&quot;&gt;🧩&lt;/span&gt;&lt;/div&gt;Auth Service&lt;div&gt;(регистрация, JWT, роли)&lt;/div&gt;" style="rounded=1;whiteSpace=wrap;html=1;fillColor=#bbf7d0;strokeColor=#059669;fontSize=15;fontColor=#065f46;fontFamily=Exo 2;fontSource=https%3A%2F%2Ffonts.googleapis.com%2Fcss%3Ffamily%3DExo%2B2;fontStyle=1;align=center;" parent="1" vertex="1">
          <mxGeometry x="380" y="200" width="220" height="80" as="geometry" />
        </mxCell>
        <mxCell id="testsvc" value="&lt;div style=&quot;&quot;&gt;&lt;span style=&quot;color: rgb(17, 24, 39);&quot;&gt;&lt;font style=&quot;font-size: 20px;&quot;&gt;🧩&lt;/font&gt;&lt;/span&gt;&lt;/div&gt;Test Service&lt;div&gt;(логика теста, расчёт индекса)&lt;/div&gt;" style="rounded=1;whiteSpace=wrap;html=1;fillColor=#bbf7d0;strokeColor=#059669;fontSize=15;fontColor=#065f46;fontFamily=Exo 2;fontSource=https%3A%2F%2Ffonts.googleapis.com%2Fcss%3Ffamily%3DExo%2B2;fontStyle=1;align=center;" parent="1" vertex="1">
          <mxGeometry x="620" y="200" width="220" height="80" as="geometry" />
        </mxCell>
        <mxCell id="content" value="&lt;div&gt;&lt;span style=&quot;color: rgb(17, 24, 39); font-size: 20px; text-align: left;&quot;&gt;🧩&lt;/span&gt;&lt;/div&gt;Learning Content Service&lt;div&gt;(материалы, рекомендации)&lt;/div&gt;" style="rounded=1;whiteSpace=wrap;html=1;fillColor=#bbf7d0;strokeColor=#059669;fontSize=15;fontColor=#065f46;fontFamily=Exo 2;fontSource=https%3A%2F%2Ffonts.googleapis.com%2Fcss%3Ffamily%3DExo%2B2;fontStyle=1" parent="1" vertex="1">
          <mxGeometry x="860" y="200" width="220" height="80" as="geometry" />
        </mxCell>
        <mxCell id="analytics" value="&lt;div&gt;&lt;span style=&quot;color: rgb(17, 24, 39); font-size: 20px; text-align: left;&quot;&gt;🧩&lt;/span&gt;&lt;/div&gt;Analytics Service&lt;div&gt;(сбор и агрегация)&lt;/div&gt;" style="rounded=1;whiteSpace=wrap;html=1;fillColor=#bbf7d0;strokeColor=#059669;fontSize=15;fontColor=#065f46;fontFamily=Exo 2;fontSource=https%3A%2F%2Ffonts.googleapis.com%2Fcss%3Ffamily%3DExo%2B2;fontStyle=1" parent="1" vertex="1">
          <mxGeometry x="540" y="380" width="180" height="80" as="geometry" />
        </mxCell>
        <mxCell id="integration" value="&lt;div&gt;&lt;span style=&quot;color: rgb(17, 24, 39); font-size: 20px; text-align: left;&quot;&gt;🧩&lt;/span&gt;&lt;/div&gt;Integration Service&lt;div&gt;(банк, внешние API)&lt;/div&gt;" style="rounded=1;whiteSpace=wrap;html=1;fillColor=#bbf7d0;strokeColor=#059669;fontSize=15;fontColor=#065f46;fontFamily=Exo 2;fontSource=https%3A%2F%2Ffonts.googleapis.com%2Fcss%3Ffamily%3DExo%2B2;fontStyle=1" parent="1" vertex="1">
          <mxGeometry x="920" y="380" width="180" height="80" as="geometry" />
        </mxCell>
        <mxCell id="database" value="&lt;div&gt;&lt;div&gt;&lt;div style=&quot;&quot;&gt;&lt;font style=&quot;color: light-dark(rgb(17, 24, 39), rgb(212, 218, 231)); background-color: transparent; font-size: 20px;&quot;&gt;📦&lt;/font&gt;&lt;span style=&quot;color: light-dark(rgb(17, 24, 39), rgb(212, 218, 231)); background-color: transparent;&quot;&gt;&amp;nbsp;&lt;/span&gt;&lt;/div&gt;&lt;div&gt;&lt;/div&gt;&lt;/div&gt;&lt;div&gt;&lt;span style=&quot;background-color: transparent; color: light-dark(rgb(8, 51, 68), rgb(170, 207, 221));&quot;&gt;Database (Postgres)&lt;/span&gt;&lt;/div&gt;&lt;div&gt;users, tests, results, materials, logs&lt;/div&gt;&lt;/div&gt;" style="rounded=1;whiteSpace=wrap;html=1;fillColor=#e0f2fe;strokeColor=#0369a1;fontSize=15;fontColor=#083344;fontFamily=Exo 2;fontSource=https%3A%2F%2Ffonts.googleapis.com%2Fcss%3Ffamily%3DExo%2B2;fontStyle=1" parent="1" vertex="1">
          <mxGeometry x="240" y="372.5" width="210" height="95" as="geometry" />
        </mxCell>
        <mxCell id="external" value="&lt;div style=&quot;&quot;&gt;&lt;span style=&quot;color: rgb(17, 24, 39);&quot;&gt;&lt;font style=&quot;font-size: 20px;&quot;&gt;🔗&lt;/font&gt;&lt;/span&gt;&lt;/div&gt;Внешние системы&lt;div&gt;- API банка&lt;/div&gt;&lt;div&gt;- Яндекс.Метрика&lt;/div&gt;" style="rounded=1;whiteSpace=wrap;html=1;fillColor=#f0fdf4;strokeColor=#065f46;fontSize=15;fontColor=#064e3b;fontFamily=Exo 2;fontSource=https%3A%2F%2Ffonts.googleapis.com%2Fcss%3Ffamily%3DExo%2B2;fontStyle=1;align=center;" parent="1" vertex="1">
          <mxGeometry x="1180" y="365" width="210" height="110" as="geometry" />
        </mxCell>
        <mxCell id="security" value="&lt;div&gt;&lt;span style=&quot;color: rgb(17, 24, 39);&quot;&gt;&lt;font style=&quot;font-size: 20px;&quot;&gt;🔒&lt;/font&gt;&lt;/span&gt;&lt;/div&gt;Security &amp;amp; Infra&lt;div&gt;WAF, Secrets Manager, CI/CD, Monitoring&lt;/div&gt;" style="rounded=1;whiteSpace=wrap;html=1;fillColor=#fff1f2;strokeColor=#be123c;fontSize=15;fontColor=#7f1d1d;fontFamily=Exo 2;fontSource=https%3A%2F%2Ffonts.googleapis.com%2Fcss%3Ffamily%3DExo%2B2;fontStyle=1" parent="1" vertex="1">
          <mxGeometry x="1140" y="160" width="200" height="100" as="geometry" />
        </mxCell>
        <mxCell id="c1" style="edgeStyle=orthogonalEdgeStyle;rounded=0;orthogonalLoop=1;jettySize=auto;html=1;strokeColor=#0f172a;endArrow=classic;fontFamily=Exo 2;fontSource=https%3A%2F%2Ffonts.googleapis.com%2Fcss%3Ffamily%3DExo%2B2;fontSize=15;fontStyle=1" parent="1" source="frontend" target="gateway" edge="1">
          <mxGeometry relative="1" as="geometry" />
        </mxCell>
        <mxCell id="c2" style="edgeStyle=orthogonalEdgeStyle;rounded=0;html=1;strokeColor=#0f172a;endArrow=block;fontFamily=Exo 2;fontSource=https%3A%2F%2Ffonts.googleapis.com%2Fcss%3Ffamily%3DExo%2B2;fontSize=15;fontStyle=1" parent="1" source="gateway" target="auth" edge="1">
          <mxGeometry relative="1" as="geometry">
            <Array as="points">
              <mxPoint x="490" y="170" />
              <mxPoint x="490" y="170" />
            </Array>
          </mxGeometry>
        </mxCell>
        <mxCell id="c3" style="edgeStyle=orthogonalEdgeStyle;rounded=0;html=1;strokeColor=#0f172a;endArrow=block;fontFamily=Exo 2;fontSource=https%3A%2F%2Ffonts.googleapis.com%2Fcss%3Ffamily%3DExo%2B2;fontSize=15;fontStyle=1" parent="1" source="gateway" target="testsvc" edge="1">
          <mxGeometry relative="1" as="geometry">
            <Array as="points">
              <mxPoint x="730" y="140" />
            </Array>
          </mxGeometry>
        </mxCell>
        <mxCell id="c4" style="edgeStyle=orthogonalEdgeStyle;rounded=0;html=1;strokeColor=#0f172a;endArrow=block;fontFamily=Exo 2;fontSource=https%3A%2F%2Ffonts.googleapis.com%2Fcss%3Ffamily%3DExo%2B2;fontSize=15;fontStyle=1" parent="1" source="gateway" target="content" edge="1">
          <mxGeometry relative="1" as="geometry">
            <Array as="points">
              <mxPoint x="970" y="130" />
            </Array>
          </mxGeometry>
        </mxCell>
        <mxCell id="c5" style="edgeStyle=orthogonalEdgeStyle;rounded=0;html=1;strokeColor=#0f172a;endArrow=block;fontFamily=Exo 2;fontSource=https%3A%2F%2Ffonts.googleapis.com%2Fcss%3Ffamily%3DExo%2B2;fontSize=15;fontStyle=1;entryX=0.5;entryY=0;entryDx=0;entryDy=0;" parent="1" source="gateway" target="analytics" edge="1">
          <mxGeometry relative="1" as="geometry">
            <Array as="points">
              <mxPoint x="610" y="320" />
              <mxPoint x="630" y="320" />
            </Array>
          </mxGeometry>
        </mxCell>
        <mxCell id="c6" style="edgeStyle=orthogonalEdgeStyle;rounded=0;html=1;strokeColor=#0f172a;endArrow=block;fontFamily=Exo 2;fontSource=https%3A%2F%2Ffonts.googleapis.com%2Fcss%3Ffamily%3DExo%2B2;fontSize=15;fontStyle=1;entryX=0.5;entryY=0;entryDx=0;entryDy=0;" parent="1" source="gateway" target="integration" edge="1">
          <mxGeometry relative="1" as="geometry">
            <Array as="points">
              <mxPoint x="1090" y="110" />
              <mxPoint x="1090" y="320" />
              <mxPoint x="1010" y="320" />
            </Array>
          </mxGeometry>
        </mxCell>
        <mxCell id="c7" style="edgeStyle=orthogonalEdgeStyle;rounded=0;html=1;strokeColor=#0369a1;endArrow=block;dashed=0;fontFamily=Exo 2;fontSource=https%3A%2F%2Ffonts.googleapis.com%2Fcss%3Ffamily%3DExo%2B2;fontSize=15;fontStyle=1" parent="1" source="testsvc" target="database" edge="1">
          <mxGeometry relative="1" as="geometry">
            <Array as="points">
              <mxPoint x="740" y="310" />
            </Array>
          </mxGeometry>
        </mxCell>
        <mxCell id="c8" style="edgeStyle=orthogonalEdgeStyle;rounded=0;html=1;strokeColor=#0369a1;endArrow=block;fontFamily=Exo 2;fontSource=https%3A%2F%2Ffonts.googleapis.com%2Fcss%3Ffamily%3DExo%2B2;fontSize=15;fontStyle=1" parent="1" source="auth" target="database" edge="1">
          <mxGeometry relative="1" as="geometry">
            <Array as="points">
              <mxPoint x="500" y="310" />
            </Array>
          </mxGeometry>
        </mxCell>
        <mxCell id="c9" style="edgeStyle=orthogonalEdgeStyle;rounded=0;html=1;strokeColor=#0369a1;endArrow=block;fontFamily=Exo 2;fontSource=https%3A%2F%2Ffonts.googleapis.com%2Fcss%3Ffamily%3DExo%2B2;fontSize=15;fontStyle=1" parent="1" source="content" target="database" edge="1">
          <mxGeometry relative="1" as="geometry">
            <Array as="points">
              <mxPoint x="950" y="310" />
            </Array>
          </mxGeometry>
        </mxCell>
        <mxCell id="c10" style="edgeStyle=orthogonalEdgeStyle;rounded=0;html=1;strokeColor=#0369a1;endArrow=block;fontFamily=Exo 2;fontSource=https%3A%2F%2Ffonts.googleapis.com%2Fcss%3Ffamily%3DExo%2B2;fontSize=15;fontStyle=1" parent="1" source="analytics" target="database" edge="1">
          <mxGeometry relative="1" as="geometry" />
        </mxCell>
        <mxCell id="c11" style="edgeStyle=orthogonalEdgeStyle;rounded=0;html=1;strokeColor=#0f5132;endArrow=block;dashed=1;fontFamily=Exo 2;fontSource=https%3A%2F%2Ffonts.googleapis.com%2Fcss%3Ffamily%3DExo%2B2;fontSize=15;fontStyle=1" parent="1" source="integration" target="external" edge="1">
          <mxGeometry relative="1" as="geometry" />
        </mxCell>
        <mxCell id="secLine" style="edgeStyle=orthogonalEdgeStyle;rounded=0;html=1;strokeColor=#be123c;dashed=1;fontFamily=Exo 2;fontSource=https%3A%2F%2Ffonts.googleapis.com%2Fcss%3Ffamily%3DExo%2B2;fontSize=15;fontStyle=1" parent="1" source="security" target="gateway" edge="1">
          <mxGeometry relative="1" as="geometry">
            <Array as="points">
              <mxPoint x="830" y="90" />
              <mxPoint x="830" y="90" />
            </Array>
          </mxGeometry>
        </mxCell>
        <mxCell id="legend" value="Легенда:&lt;div&gt;🔒 HTTPS/JWT&lt;/div&gt;&lt;div&gt;🧩 Микросервисы&lt;/div&gt;&lt;div&gt;&lt;span style=&quot;text-align: left; background-color: transparent; color: light-dark(rgb(17, 24, 39), rgb(212, 218, 231));&quot;&gt;📦&lt;/span&gt;&amp;nbsp;БД&lt;/div&gt;&lt;div&gt;🔗 Внешние API&lt;/div&gt;" style="rounded=1;whiteSpace=wrap;html=1;fillColor=#ffffff;strokeColor=#9ca3af;fontSize=15;fontColor=#111827;fontFamily=Exo 2;fontSource=https%3A%2F%2Ffonts.googleapis.com%2Fcss%3Ffamily%3DExo%2B2;fontStyle=1" parent="1" vertex="1">
          <mxGeometry x="960" y="-50" width="260" height="120" as="geometry" />
        </mxCell>
      </root>
    </mxGraphModel>
  </diagram>
</mxfile>
